<svg width="42" height="41" viewBox="0 0 42 41" fill="none" xmlns="http://www.w3.org/2000/svg">
<path fill-rule="evenodd" clip-rule="evenodd" d="M10.5976 8.09014C9.90902 8.09014 9.35083 7.71801 9.35083 7.25897V1.44079C9.35083 0.981746 9.90902 0.609619 10.5976 0.609619C11.2861 0.609619 11.8443 0.981746 11.8443 1.44079V7.25897C11.8443 7.71801 11.2861 8.09014 10.5976 8.09014Z" fill="white"/>
<path fill-rule="evenodd" clip-rule="evenodd" d="M30.5446 8.09014C29.856 8.09014 29.2979 7.71801 29.2979 7.25897V1.44079C29.2979 0.981746 29.856 0.609619 30.5446 0.609619C31.2332 0.609619 31.7914 0.981746 31.7914 1.44079V7.25897C31.7914 7.71801 31.2332 8.09014 30.5446 8.09014Z" fill="white"/>
<path opacity="0.5" fill-rule="evenodd" clip-rule="evenodd" d="M23.6762 35.0596H3.34275C2.84197 35.0596 2.43602 34.6777 2.43602 34.2066V14.5866C2.43602 14.1155 2.84197 13.7336 3.34275 13.7336H37.7985C38.2992 13.7336 38.7052 14.1155 38.7052 14.5866V24.6414C39.3677 25.0498 39.9764 25.5305 40.5187 26.0737V6.05618C40.5187 5.11394 39.7067 4.3501 38.7052 4.3501H33.2648V7.76226C33.2648 9.17563 32.047 10.3214 30.5446 10.3214C29.0423 10.3214 27.8244 9.17563 27.8244 7.76226V4.3501H13.3168V7.76226C13.3168 9.17563 12.0989 10.3214 10.5966 10.3214C9.09427 10.3214 7.8764 9.17563 7.8764 7.76226V4.3501H2.43602C1.43447 4.3501 0.622559 5.11394 0.622559 6.05618V35.0596C0.622559 36.0018 1.43447 36.7657 2.43602 36.7657H24.3879C24.0915 36.2204 23.8531 35.649 23.6762 35.0596Z" fill="white"/>
<path fill-rule="evenodd" clip-rule="evenodd" d="M33.6615 40.5056C29.1859 40.5056 25.5576 36.8774 25.5576 32.4017C25.5626 27.9281 29.1879 24.3028 33.6615 24.2979C38.1372 24.2979 41.7654 27.9261 41.7654 32.4017C41.7654 36.8774 38.1372 40.5056 33.6615 40.5056ZM38.8014 30.3371C39.1529 29.9854 39.1529 29.4155 38.8014 29.0638C38.4498 28.7123 37.8798 28.7123 37.5282 29.0638L31.8617 34.7303L29.797 32.6656C29.4437 32.3243 28.8821 32.3292 28.5348 32.6765C28.1875 33.0239 28.1826 33.5855 28.5238 33.9388L31.2251 36.6401C31.5768 36.9916 32.1467 36.9916 32.4983 36.6401L38.8014 30.3371Z" fill="white"/>
</svg>
