<svg width="48" height="48" viewBox="0 0 48 48" fill="none" xmlns="http://www.w3.org/2000/svg">
<path d="M48.0004 24.1471C48.0004 10.8091 37.2544 -0.00292969 24.0004 -0.00292969C10.7404 7.03125e-05 -0.00561523 10.8091 -0.00561523 24.1501C-0.00561523 36.2011 8.77238 46.1911 20.2444 48.0031V31.1281H14.1544V24.1501H20.2504V18.8251C20.2504 12.7741 23.8354 9.43207 29.3164 9.43207C31.9444 9.43207 34.6894 9.90307 34.6894 9.90307V15.8431H31.6624C28.6834 15.8431 27.7534 17.7061 27.7534 19.6171V24.1471H34.4074L33.3454 31.1251H27.7504V48.0001C39.2224 46.1881 48.0004 36.1981 48.0004 24.1471Z" fill="white"/>
</svg>
