<svg width="48" height="48" viewBox="0 0 48 48" fill="none" xmlns="http://www.w3.org/2000/svg">
<path d="M23.9935 11.6855C17.1791 11.6855 11.6795 17.1851 11.6795 23.9996C11.6795 30.814 17.1791 36.3136 23.9935 36.3136C30.808 36.3136 36.3076 30.814 36.3076 23.9996C36.3076 17.1851 30.808 11.6855 23.9935 11.6855ZM23.9935 32.0028C19.5867 32.0028 15.9903 28.4064 15.9903 23.9996C15.9903 19.5927 19.5867 15.9963 23.9935 15.9963C28.4004 15.9963 31.9968 19.5927 31.9968 23.9996C31.9968 28.4064 28.4004 32.0028 23.9935 32.0028ZM36.812 8.31124C35.2209 8.31124 33.9361 9.59609 33.9361 11.1871C33.9361 12.7782 35.2209 14.063 36.812 14.063C38.403 14.063 39.6879 12.7842 39.6879 11.1871C39.6883 10.8093 39.6143 10.4352 39.4699 10.086C39.3256 9.73689 39.1137 9.41966 38.8466 9.15252C38.5794 8.88537 38.2622 8.67355 37.9131 8.52919C37.564 8.38484 37.1898 8.31077 36.812 8.31124ZM47.9973 23.9996C47.9973 20.6854 48.0273 17.4012 47.8412 14.093C47.6551 10.2505 46.7785 6.84028 43.9687 4.03043C41.1528 1.21458 37.7486 0.344011 33.9061 0.157888C30.5919 -0.028234 27.3077 0.00178584 23.9996 0.00178584C20.6854 0.00178584 17.4012 -0.028234 14.093 0.157888C10.2505 0.344011 6.84028 1.22059 4.03043 4.03043C1.21458 6.84628 0.344011 10.2505 0.157888 14.093C-0.028234 17.4072 0.00178584 20.6914 0.00178584 23.9996C0.00178584 27.3077 -0.028234 30.5979 0.157888 33.9061C0.344011 37.7486 1.22059 41.1588 4.03043 43.9687C6.84628 46.7845 10.2505 47.6551 14.093 47.8412C17.4072 48.0273 20.6914 47.9973 23.9996 47.9973C27.3137 47.9973 30.5979 48.0273 33.9061 47.8412C37.7486 47.6551 41.1588 46.7785 43.9687 43.9687C46.7845 41.1528 47.6551 37.7486 47.8412 33.9061C48.0333 30.5979 47.9973 27.3137 47.9973 23.9996ZM42.7139 38.1569C42.2756 39.2496 41.7472 40.0661 40.9007 40.9067C40.0541 41.7532 39.2436 42.2816 38.1509 42.7199C34.9928 43.9747 27.4938 43.6925 23.9935 43.6925C20.4932 43.6925 12.9883 43.9747 9.83024 42.7259C8.73753 42.2876 7.92099 41.7592 7.08044 40.9127C6.23388 40.0661 5.70553 39.2556 5.26725 38.1629C4.01843 34.9988 4.30061 27.4999 4.30061 23.9996C4.30061 20.4993 4.01843 12.9943 5.26725 9.83625C5.70553 8.74353 6.23388 7.92699 7.08044 7.08644C7.92699 6.24589 8.73753 5.71154 9.83024 5.27325C12.9883 4.02443 20.4932 4.30661 23.9935 4.30661C27.4938 4.30661 34.9988 4.02443 38.1569 5.27325C39.2496 5.71154 40.0661 6.23988 40.9067 7.08644C41.7532 7.933 42.2816 8.74353 42.7199 9.83625C43.9687 12.9943 43.6865 20.4993 43.6865 23.9996C43.6865 27.4999 43.9687 34.9988 42.7139 38.1569Z" fill="white"/>
</svg>
