<svg width="46" height="46" viewBox="0 0 46 46" fill="none" xmlns="http://www.w3.org/2000/svg">
<path opacity="0.5" fill-rule="evenodd" clip-rule="evenodd" d="M26.9884 23.9975C22.5919 22.7785 18.4507 22.8037 14.1957 23.9863C12.0583 24.5795 10.623 26.3833 10.623 28.4743V29.6363C10.623 30.1527 11.0689 30.5718 11.6204 30.5718H29.5737C30.1253 30.5718 30.5711 30.1527 30.5711 29.6363V28.4874C30.5711 26.3964 29.1318 24.5916 26.9884 23.9975Z" fill="white"/>
<path opacity="0.5" fill-rule="evenodd" clip-rule="evenodd" d="M21.2212 20.5979C24.3808 20.5979 26.8316 16.989 26.8316 13.8846C26.8316 10.7112 24.3154 8.13037 21.2212 8.13037C18.1271 8.13037 15.6108 10.7112 15.6108 13.8846C15.6108 16.989 18.0616 20.5979 21.2212 20.5979Z" fill="white"/>
<path fill-rule="evenodd" clip-rule="evenodd" d="M38.3178 35.5586C37.4795 36.5557 36.5554 37.4796 35.5581 38.3177L42.7725 45.5326L45.5321 42.7725L38.3178 35.5586Z" fill="white"/>
<path fill-rule="evenodd" clip-rule="evenodd" d="M21.2204 0.649414C32.563 0.649414 41.7918 9.87717 41.7918 21.2208C41.7918 32.5645 32.563 41.7923 21.2204 41.7923C9.87766 41.7923 0.648926 32.5645 0.648926 21.2208C0.648926 9.87717 9.87766 0.649414 21.2204 0.649414ZM2.61012 21.2211C2.61012 31.4843 10.9592 39.8333 21.2224 39.8333C31.4855 39.8333 39.8346 31.4843 39.8346 21.2211C39.8346 10.9579 31.4855 2.60883 21.2224 2.60883C10.9592 2.60883 2.61012 10.9579 2.61012 21.2211Z" fill="white"/>
</svg>
