<svg width="59" height="46" viewBox="0 0 59 46" fill="none" xmlns="http://www.w3.org/2000/svg">
<path fill-rule="evenodd" clip-rule="evenodd" d="M14.1615 41.8536L0.907227 28.3375L4.64749 24.5972L14.6215 30.831L43.2968 0.908936L47.0371 3.40244L17.9254 41.6192C17.4867 42.1949 16.8195 42.5517 16.097 42.5966C15.3746 42.6416 14.6682 42.3705 14.1615 41.8536Z" fill="white"/>
<path opacity="0.497489" fill-rule="evenodd" clip-rule="evenodd" d="M57.0103 12.13H50.7765C50.088 12.13 49.5298 11.5718 49.5298 10.8832C49.5298 10.1947 50.088 9.63647 50.7765 9.63647H57.0103C57.6989 9.63647 58.2571 10.1947 58.2571 10.8832C58.2571 11.5718 57.6989 12.13 57.0103 12.13Z" fill="white"/>
<path opacity="0.497489" fill-rule="evenodd" clip-rule="evenodd" d="M57.0115 23.3504H42.0505C41.3619 23.3504 40.8037 22.7922 40.8037 22.1037C40.8037 21.4151 41.3619 20.8569 42.0505 20.8569H57.0115C57.7001 20.8569 58.2583 21.4151 58.2583 22.1037C58.2583 22.7922 57.7001 23.3504 57.0115 23.3504Z" fill="white"/>
<path opacity="0.497489" fill-rule="evenodd" clip-rule="evenodd" d="M57.0107 34.5714H33.3224C32.6339 34.5714 32.0757 34.0132 32.0757 33.3246C32.0757 32.6361 32.6339 32.0779 33.3224 32.0779H57.0107C57.6993 32.0779 58.2575 32.6361 58.2575 33.3246C58.2575 34.0132 57.6993 34.5714 57.0107 34.5714Z" fill="white"/>
<path opacity="0.497489" fill-rule="evenodd" clip-rule="evenodd" d="M57.0098 45.7921H24.5942C23.9056 45.7921 23.3474 45.2339 23.3474 44.5453C23.3474 43.8568 23.9056 43.2986 24.5942 43.2986H57.0098C57.6983 43.2986 58.2565 43.8568 58.2565 44.5453C58.2565 45.2339 57.6983 45.7921 57.0098 45.7921Z" fill="white"/>
</svg>
