<svg width="586" height="325" viewBox="0 0 586 325" fill="none" xmlns="http://www.w3.org/2000/svg">
<g filter="url(#filter0_dd)">
<rect x="43" y="25.2336" width="500" height="238.71" rx="10" fill="white"/>
<path fill-rule="evenodd" clip-rule="evenodd" d="M344.303 142.07H342.851V135.275H345.386C347.138 135.275 348.176 135.777 348.176 137.33C348.176 138.582 347.439 139.033 346.538 139.097L348.274 142.068H346.556L344.984 139.214H344.303V142.07ZM345.588 138.066C346.24 138.066 346.622 137.932 346.622 137.181C346.622 136.479 345.871 136.428 345.32 136.428H344.303V138.066H345.588ZM345.352 144.993C341.999 144.993 339.011 142.673 339.011 138.682C339.011 134.692 341.999 132.373 345.352 132.373C348.691 132.373 351.68 134.692 351.68 138.682C351.681 142.673 348.693 144.993 345.352 144.993ZM345.352 133.842C342.851 133.842 340.83 135.778 340.83 138.681C340.83 141.587 342.851 143.537 345.352 143.523V143.537C347.789 143.537 349.86 141.587 349.86 138.681C349.86 135.778 347.791 133.842 345.352 133.842Z" fill="#333333"/>
<path fill-rule="evenodd" clip-rule="evenodd" d="M353.139 95.1122C353.139 123.76 329.91 146.985 301.263 146.985C272.612 146.985 249.386 123.76 249.386 95.1122C249.386 66.461 272.612 43.2336 301.263 43.2336C329.912 43.2336 353.139 66.4592 353.139 95.1122ZM301.264 48.4222C275.478 48.4222 254.576 69.3274 254.576 95.1122C254.576 120.893 275.478 141.8 301.264 141.8C327.049 141.8 347.949 120.893 347.949 95.1122C347.949 69.3256 327.049 48.4222 301.264 48.4222Z" fill="#333333"/>
<path fill-rule="evenodd" clip-rule="evenodd" d="M322.51 73.6287H309.461L309.42 53.1331H301.6C298.696 58.6772 290.693 62.7936 281.018 63.3486L280.971 63.3737V67.9265H291.26V73.6287H279.763C267.758 73.6287 258.028 83.3611 258.028 95.3636C258.028 107.368 267.758 117.1 279.763 117.1H291.26V118.138C291.261 119.539 290.985 120.927 290.449 122.221C289.913 123.516 289.127 124.692 288.137 125.683C287.146 126.674 285.97 127.46 284.675 127.996C283.381 128.532 281.994 128.808 280.592 128.808V133.359H320.231V128.808C318.83 128.808 317.442 128.533 316.147 127.997C314.853 127.46 313.676 126.675 312.685 125.684C311.694 124.693 310.907 123.517 310.371 122.222C309.834 120.927 309.558 119.54 309.558 118.138V117.1H322.512C334.517 117.1 344.247 107.368 344.247 95.3636C344.244 83.3611 334.513 73.6287 322.51 73.6287ZM275.718 95.3618C275.718 86.7465 282.665 79.7602 291.259 79.6811V111.042C282.665 110.963 275.718 103.979 275.718 95.3618ZM309.605 111.051H309.542L309.475 79.6758H309.605C313.765 79.6758 317.756 81.3286 320.698 84.2706C323.64 87.2127 325.292 91.2029 325.292 95.3636C325.292 99.5243 323.64 103.515 320.698 106.457C317.756 109.399 313.765 111.051 309.605 111.051ZM134.176 155.001C139.49 150.85 146.261 148.814 153.834 148.814C157.764 148.814 163.299 149.613 166.722 150.561C167.595 150.778 168.105 150.926 168.761 150.852C168.833 152.526 169.197 157.109 169.781 161.554C169.416 162.062 168.322 162.14 167.814 161.698C166.722 156.748 163.445 151.069 152.888 151.069C141.747 151.069 132.281 158.131 132.281 173.207C132.281 188.494 141.965 196.94 153.906 196.94C163.299 196.94 167.451 190.827 169.125 186.529C169.635 186.164 170.727 186.312 171.02 186.82C170.51 190.604 168.615 195.41 167.523 196.793C166.65 196.94 165.776 197.231 164.977 197.522C163.375 198.104 158.132 199.2 153.472 199.2C146.918 199.2 140.657 197.889 135.339 194.32C129.513 190.315 125 183.688 125 174.295C124.998 166.215 128.64 159.297 134.176 155.001ZM178.624 180.392C178.624 169.465 186.816 161.114 198.067 161.114C210.684 161.114 217.019 170.234 217.019 179.846C217.019 190.879 208.608 198.907 198.067 198.907C185.945 198.907 178.624 190.222 178.624 180.392ZM211.559 181.536C211.559 172.524 207.572 162.804 197.141 162.804C191.462 162.804 184.086 166.684 184.086 178.645C184.086 186.723 188.019 197.211 198.779 197.211C205.332 197.213 211.559 192.298 211.559 181.536ZM243.511 183.449C244.768 186.021 245.97 188.532 247.281 190.935H247.388C248.865 188.366 250.23 185.525 251.596 182.741L256.731 172.309C259.242 167.341 260.772 164.336 260.882 161.824C262.737 161.989 263.884 161.989 264.975 161.989C266.341 161.989 268.143 161.933 269.838 161.824C270.165 162.041 270.165 162.971 269.89 163.189L268.744 163.3C265.301 163.679 264.867 164.661 264.921 168.488C265.03 174.277 265.084 184.379 265.521 192.244C265.684 194.976 265.63 196.396 268.198 196.667L269.944 196.833C270.275 197.163 270.217 197.984 269.836 198.197C267.69 198.091 265.541 198.036 263.392 198.032C261.483 198.032 259.025 198.088 256.783 198.197C256.399 197.928 256.347 197.163 256.672 196.833L258.256 196.667C260.934 196.398 260.934 195.523 260.934 192.027L260.77 169.25H260.661C260.276 169.85 258.204 174.221 257.11 176.349L252.25 185.908C249.791 190.714 247.333 195.848 246.35 198.361C246.239 198.526 246.022 198.582 245.804 198.582C245.693 198.582 245.422 198.526 245.314 198.361C244.386 195.468 241.763 190.114 240.506 187.438L235.591 176.897C234.443 174.386 233.297 171.545 232.096 169.033H231.986C231.765 172.422 231.604 175.588 231.438 178.752C231.275 182.084 231.056 186.946 231.056 191.586C231.056 195.631 231.385 196.504 233.513 196.666L235.589 196.831C235.97 197.161 235.918 198.03 235.535 198.196C233.517 198.083 231.495 198.028 229.474 198.03C227.724 198.03 225.76 198.086 223.902 198.196C223.574 197.926 223.466 197.106 223.793 196.831L224.994 196.666C227.288 196.396 228.053 196.01 228.382 192.19C228.709 188.584 228.982 185.581 229.31 180.177C229.581 175.642 229.8 170.997 229.91 167.995C230.02 164.553 229.581 163.844 226.252 163.302L225.377 163.19C225.104 162.863 225.16 162.043 225.596 161.825C227.236 161.935 228.547 161.991 229.91 161.991C231.167 161.991 232.642 161.991 234.443 161.825C234.224 163.955 235.591 167.343 237.284 170.838L243.511 183.449ZM285.731 189.839C285.731 195.574 285.84 196.283 289.333 196.666L290.81 196.831C291.137 197.104 291.027 198.03 290.698 198.196C287.588 198.086 285.783 198.03 283.599 198.03C281.304 198.03 279.337 198.086 276.934 198.196C276.607 198.03 276.498 197.161 276.826 196.831L277.972 196.666C281.142 196.231 281.248 195.575 281.248 189.839V169.686C281.248 165.046 281.142 164.06 278.683 163.842L276.717 163.625C276.332 163.298 276.388 162.474 276.826 162.256C279.72 161.874 283.105 161.822 287.64 161.822C292.175 161.822 295.558 162.422 298.127 164.004C300.637 165.59 302.494 168.431 302.494 172.201C302.494 177.22 299.384 179.735 297.033 180.882C294.633 182.03 291.736 182.52 289.499 182.52C289.118 182.355 289.118 181.534 289.445 181.43C295.343 180.337 297.471 177.003 297.471 172.255C297.471 166.958 294.36 163.517 288.678 163.517C285.785 163.517 285.731 163.735 285.731 165.482V189.839ZM340.014 175.692C340.014 172.307 339.903 166.028 338.976 164.386C338.593 163.735 337.607 163.352 336.244 163.242L334.879 163.131C334.552 162.752 334.662 162.041 334.989 161.822C337.065 161.931 339.086 161.987 341.216 161.987C343.509 161.987 344.983 161.931 346.95 161.822C347.388 162.095 347.333 162.804 347.06 163.131L345.749 163.242C344.384 163.352 343.293 163.842 343.019 164.552C342.202 166.355 342.254 172.634 342.254 175.692V181.867C342.254 186.619 341.489 191.642 338.43 194.92C336.083 197.488 332.038 198.909 327.997 198.909C324.229 198.909 320.459 198.197 317.785 195.906C314.888 193.499 313.523 189.51 313.523 183.014V170.126C313.523 164.444 313.414 163.517 310.248 163.244L308.883 163.133C308.552 162.916 308.665 161.989 308.992 161.824C311.724 161.933 313.581 161.989 315.765 161.989C318.003 161.989 319.806 161.933 322.482 161.824C322.809 161.989 322.916 162.914 322.591 163.133L321.28 163.244C318.112 163.517 318.004 164.444 318.004 170.126V181.922C318.004 190.714 320.734 196.504 329.089 196.504C337.009 196.504 340.016 190.277 340.016 181.974V175.692H340.014ZM370.542 189.839C370.542 195.574 370.652 196.339 373.818 196.666L375.565 196.831C375.892 197.052 375.786 198.03 375.456 198.196C372.345 198.086 370.484 198.03 368.301 198.03C366.117 198.03 364.204 198.086 360.709 198.196C360.382 198.03 360.271 197.106 360.709 196.831L362.674 196.666C365.788 196.396 366.059 195.575 366.059 189.839V165.428C366.059 163.735 366.059 163.677 364.425 163.677H361.418C359.071 163.677 356.068 163.787 354.702 165.046C353.392 166.245 352.843 167.445 352.246 168.814C351.808 169.144 351.043 168.866 350.826 168.431C351.699 165.972 352.516 162.476 352.898 160.293C353.064 160.184 353.771 160.128 353.94 160.293C354.267 162.041 356.07 161.987 358.581 161.987H380.7C383.647 161.987 384.138 161.876 384.958 160.457C385.231 160.346 385.831 160.401 385.941 160.619C385.341 162.86 384.958 167.283 385.123 168.921C384.903 169.36 383.976 169.36 383.703 169.031C383.538 167.666 383.155 165.645 382.334 165.046C381.079 164.115 379.005 163.677 376 163.677H372.124C370.486 163.677 370.542 163.733 370.542 165.532V189.839ZM396.212 170.178C396.212 164.5 396.102 163.679 392.88 163.3L392.007 163.189C391.677 162.971 391.787 161.989 392.117 161.824C394.263 161.932 396.412 161.987 398.561 161.989H408.829C412.322 161.989 415.546 161.989 416.201 161.824C416.528 162.754 416.857 166.685 417.074 169.088C416.857 169.415 415.984 169.523 415.709 169.198C414.888 166.63 414.398 164.719 411.558 164.006C410.411 163.736 408.665 163.679 406.259 163.679H402.327C400.689 163.679 400.689 163.788 400.689 165.865V176.788C400.689 178.318 400.854 178.318 402.492 178.318H405.66C407.954 178.318 409.649 178.208 410.305 177.991C410.957 177.77 411.339 177.443 411.614 176.076L412.052 173.839C412.322 173.508 413.252 173.508 413.469 173.894C413.469 175.205 413.252 177.335 413.252 179.408C413.252 181.376 413.469 183.449 413.469 184.652C413.252 185.035 412.322 185.035 412.052 184.708L411.562 182.578C411.341 181.592 410.959 180.775 409.868 180.502C409.103 180.284 407.792 180.229 405.662 180.229H402.494C400.856 180.229 400.691 180.284 400.691 181.705V189.404C400.691 192.298 400.856 194.155 401.729 195.083C402.385 195.739 403.532 196.339 408.338 196.339C412.544 196.339 414.127 196.121 415.33 195.521C416.312 194.974 417.789 193.063 419.209 190.222C419.592 189.949 420.357 190.112 420.574 190.604C420.192 192.515 418.823 196.721 418.116 198.196C413.237 198.086 408.358 198.031 403.478 198.03H398.565C396.217 198.03 394.358 198.086 391.138 198.196C390.808 198.03 390.7 197.161 391.029 196.831L392.828 196.666C395.939 196.396 396.217 195.575 396.217 189.839V170.178H396.212ZM430.84 170.234C430.84 165.046 430.675 164.117 428.433 163.842L426.686 163.625C426.303 163.352 426.303 162.474 426.742 162.256C429.8 161.987 433.572 161.822 438.92 161.822C442.306 161.822 445.529 162.095 448.04 163.46C450.664 164.828 452.575 167.283 452.575 171.103C452.575 176.292 448.478 179.133 445.745 180.227C445.475 180.554 445.745 181.1 446.018 181.536C450.389 188.584 453.283 192.95 456.993 196.066C457.927 196.883 459.29 197.486 460.765 197.596C461.038 197.707 461.095 198.144 460.82 198.361C460.326 198.526 459.455 198.634 458.417 198.634C453.773 198.634 450.987 197.269 447.112 191.752C445.691 189.735 443.45 185.963 441.76 183.505C440.939 182.305 440.066 181.757 437.88 181.757C435.425 181.757 435.316 181.809 435.316 182.957V189.839C435.316 195.574 435.425 196.231 438.588 196.666L439.739 196.831C440.066 197.104 439.956 198.03 439.63 198.196C437.465 198.089 435.297 198.034 433.13 198.03C430.836 198.03 428.868 198.086 426.3 198.196C425.973 198.03 425.865 197.213 426.194 196.831L427.559 196.666C430.727 196.283 430.835 195.575 430.835 189.839V170.234H430.84ZM435.319 178.043C435.319 179.025 435.319 179.629 435.481 179.846C435.646 180.008 436.463 180.119 439.249 180.119C441.217 180.119 443.293 179.898 444.879 178.699C446.352 177.551 447.609 175.64 447.609 171.926C447.609 167.612 444.933 163.517 438.872 163.517C435.483 163.517 435.321 163.735 435.321 165.265V178.043H435.319ZM190.293 245.942C185.706 245.942 182.811 244.521 181.773 243.921C181.117 242.718 180.408 238.842 180.3 236.274C180.571 235.891 181.39 235.784 181.609 236.112C182.428 238.898 184.668 244.246 191.002 244.246C195.591 244.246 197.829 241.243 197.829 237.968C197.829 235.564 197.336 232.889 193.349 230.32L188.161 226.931C185.429 225.132 182.261 222.017 182.261 217.538C182.261 212.35 186.302 208.147 193.405 208.147C195.097 208.147 197.062 208.42 198.482 208.857C199.193 209.022 199.959 209.187 200.395 209.187C200.885 210.496 201.379 213.555 201.379 215.848C201.16 216.179 200.285 216.339 200.012 216.01C199.301 213.393 197.829 209.839 192.584 209.839C187.232 209.839 186.085 213.393 186.085 215.904C186.085 219.068 188.705 221.31 190.727 222.621L195.097 225.351C198.538 227.481 201.923 230.647 201.923 235.839C201.925 241.845 197.392 245.942 190.293 245.942ZM210.002 227.429C210.002 216.506 218.191 208.151 229.445 208.151C242.06 208.151 248.396 217.271 248.396 226.883C248.396 237.915 239.985 245.943 229.445 245.943C217.32 245.942 210.002 237.258 210.002 227.429ZM242.933 228.573C242.933 219.561 238.944 209.841 228.515 209.841C222.834 209.841 215.46 213.72 215.46 225.681C215.46 233.76 219.393 244.248 230.152 244.248C236.708 244.248 242.933 239.334 242.933 228.573ZM262.925 212.793C266.911 209.679 271.992 208.149 277.669 208.149C280.618 208.149 284.77 208.749 287.338 209.458C287.992 209.623 288.373 209.731 288.866 209.679C288.92 210.935 289.195 214.372 289.63 217.709C289.359 218.088 288.54 218.144 288.157 217.815C287.338 214.104 284.881 209.843 276.961 209.843C268.606 209.843 261.507 215.142 261.507 226.445C261.507 237.915 268.77 244.25 277.726 244.25C284.772 244.25 287.884 239.661 289.141 236.441C289.522 236.168 290.341 236.276 290.56 236.658C290.179 239.499 288.759 243.102 287.942 244.14C287.289 244.265 286.649 244.449 286.029 244.688C284.829 245.126 280.898 245.943 277.399 245.943C272.484 245.943 267.787 244.961 263.798 242.285C259.43 239.282 256.043 234.309 256.043 227.265C256.041 221.202 258.775 216.01 262.925 212.793ZM301.368 217.323C301.368 211.534 301.259 210.609 298.037 210.335L296.672 210.223C296.345 210.006 296.451 209.024 296.781 208.858C299.513 208.968 301.37 209.024 303.664 209.024C305.846 209.024 307.704 208.968 310.434 208.858C310.765 209.024 310.873 210.006 310.546 210.223L309.177 210.335C305.957 210.608 305.846 211.534 305.846 217.323V236.77C305.846 242.558 305.957 243.318 309.177 243.704L310.546 243.866C310.873 244.086 310.763 245.069 310.434 245.23C308.179 245.13 305.921 245.076 303.664 245.069C301.369 245.075 299.074 245.129 296.781 245.23C296.451 245.069 296.347 244.196 296.672 243.866L298.037 243.704C301.26 243.318 301.368 242.556 301.368 236.77V217.323ZM322.555 217.213C322.555 211.534 322.446 210.714 319.226 210.335L318.349 210.223C318.022 210.006 318.132 209.024 318.459 208.858C320.606 208.967 322.756 209.022 324.906 209.024H335.174C338.667 209.024 341.891 209.024 342.546 208.858C342.873 209.789 343.198 213.72 343.419 216.123C343.198 216.45 342.325 216.558 342.054 216.233C341.233 213.664 340.743 211.753 337.902 211.04C336.758 210.771 335.009 210.714 332.606 210.714H328.674C327.036 210.714 327.036 210.825 327.036 212.899V223.822C327.036 225.353 327.202 225.353 328.839 225.353H332.008C334.297 225.353 335.996 225.243 336.648 225.026C337.304 224.805 337.686 224.478 337.959 223.115L338.398 220.873C338.667 220.547 339.597 220.547 339.818 220.929C339.818 222.24 339.597 224.37 339.597 226.443C339.597 228.411 339.818 230.487 339.818 231.687C339.597 232.07 338.667 232.07 338.398 231.743L337.904 229.613C337.686 228.627 337.304 227.809 336.214 227.536C335.449 227.319 334.138 227.264 332.008 227.264H328.839C327.202 227.264 327.036 227.319 327.036 228.74V236.439C327.036 239.332 327.202 241.189 328.074 242.118C328.73 242.774 329.874 243.373 334.684 243.373C338.89 243.373 340.472 243.156 341.675 242.556C342.658 242.008 344.134 240.098 345.551 237.256C345.934 236.987 346.699 237.147 346.92 237.642C346.537 239.55 345.168 243.756 344.461 245.23C339.543 245.124 334.685 245.069 329.824 245.069H324.91C322.559 245.069 320.704 245.124 317.48 245.23C317.153 245.069 317.045 244.196 317.37 243.866L319.174 243.704C322.284 243.431 322.559 242.61 322.559 236.874V217.213H322.555ZM370.292 236.876C370.292 242.61 370.402 243.375 373.568 243.706L375.319 243.867C375.646 244.088 375.537 245.071 375.21 245.232C372.095 245.126 370.238 245.071 368.055 245.071C365.871 245.071 363.958 245.126 360.463 245.232C360.133 245.071 360.025 244.142 360.463 243.867L362.428 243.706C365.542 243.433 365.817 242.612 365.817 236.876V212.465C365.817 210.771 365.817 210.714 364.179 210.714H361.172C358.825 210.714 355.82 210.825 354.455 212.082C353.144 213.282 352.6 214.485 351.997 215.85C351.562 216.181 350.797 215.906 350.58 215.468C351.453 213.009 352.27 209.516 352.652 207.33C352.818 207.22 353.525 207.165 353.69 207.33C354.017 209.081 355.82 209.024 358.331 209.024H380.454C383.401 209.024 383.891 208.912 384.712 207.493C384.985 207.382 385.585 207.438 385.695 207.655C385.091 209.896 384.712 214.32 384.874 215.958C384.657 216.396 383.726 216.396 383.457 216.067C383.292 214.702 382.909 212.682 382.088 212.082C380.836 211.152 378.759 210.714 375.757 210.714H371.875C370.24 210.714 370.292 210.769 370.292 212.569V236.876ZM408.961 236.77C408.961 242.61 409.292 243.487 412.237 243.704L414.313 243.866C414.64 244.196 414.531 245.069 414.204 245.23C410.818 245.124 408.96 245.069 406.774 245.069C404.48 245.069 402.516 245.124 399.622 245.23C399.292 245.069 399.184 244.196 399.511 243.866L401.205 243.704C404.376 243.373 404.48 242.61 404.48 236.77V233.984C404.48 230.978 404.319 230.27 402.733 227.211L396.289 214.647C394.43 211.04 393.613 210.771 391.975 210.496L390.445 210.223C390.115 209.841 390.172 209.079 390.555 208.858C392.664 208.98 394.776 209.035 396.889 209.024C399.4 209.024 401.368 208.968 402.733 208.858C403.223 209.024 403.223 209.896 402.898 210.223L402.189 210.335C400.274 210.662 399.892 210.879 399.892 211.317C399.892 211.865 401.312 214.975 401.585 215.523C403.606 219.561 405.626 223.878 407.76 227.646C409.45 224.753 411.253 221.585 412.891 218.413C414.421 215.579 416.442 211.865 416.442 211.208C416.442 210.877 415.459 210.496 414.148 210.335L413.166 210.223C412.78 209.841 412.835 209.079 413.275 208.858C415.24 208.968 416.826 209.024 418.52 209.024C420.21 209.024 421.743 208.968 423.599 208.858C424.037 209.131 424.089 209.896 423.708 210.223L422.178 210.496C419.337 210.935 417.699 214.428 414.965 219.126L411.524 225.078C409.069 229.174 408.96 229.722 408.96 233.928V236.77H408.961ZM191.112 129.085C191.112 127.397 190.975 127.204 188.958 127.204V126.288H195.986V127.204C193.973 127.204 193.836 127.397 193.836 129.085V140.694C193.836 142.386 193.973 142.574 195.993 142.574V143.492H188.953V142.574C190.975 142.574 191.113 142.386 191.113 140.694V129.085H191.112ZM199.991 143.492V142.574C201.711 142.574 201.889 142.38 201.889 140.69V129.09C201.889 127.398 201.702 127.204 199.982 127.204V126.288H211.255L211.997 130.125H210.833C210.217 127.529 209.964 127.416 208.66 127.416H205.467C204.686 127.416 204.614 127.573 204.614 128.519V133.995H207.484C208.529 133.995 208.732 133.731 208.732 131.644H209.856V137.538H208.732C208.732 135.292 208.545 135.119 207.496 135.119H204.614V141.326C204.614 142.255 204.808 142.366 205.287 142.366H209.271C210.616 142.366 210.883 142.174 211.508 139.541H212.674L211.873 143.494H199.991V143.492ZM216.494 143.492V142.574C218.216 142.574 218.394 142.38 218.394 140.69V129.09C218.394 127.398 218.209 127.204 216.487 127.204V126.288H227.76L228.502 130.125H227.338C226.72 127.529 226.469 127.416 225.165 127.416H221.972C221.192 127.416 221.119 127.573 221.119 128.519V133.995H223.991C225.034 133.995 225.237 133.731 225.237 131.644H226.361V137.538H225.237C225.237 135.292 225.05 135.119 224.003 135.119H221.119V141.326C221.119 142.255 221.313 142.366 221.792 142.366H225.776C227.121 142.366 227.388 142.174 228.013 139.541H229.177L228.376 143.494H216.494V143.492ZM232.999 143.492V142.574C234.721 142.574 234.899 142.38 234.899 140.69V129.09C234.899 127.398 234.714 127.204 232.992 127.204V126.288H244.263L245.007 130.125H243.843C243.225 127.529 242.976 127.416 241.668 127.416H238.477C237.696 127.416 237.624 127.573 237.624 128.519V133.995H240.495C241.541 133.995 241.744 133.731 241.744 131.644H242.866V137.538H241.744C241.744 135.292 241.557 135.119 240.508 135.119H237.624V141.326C237.624 142.255 237.82 142.366 238.297 142.366H242.281C243.628 142.366 243.895 142.174 244.518 139.541H245.682L244.885 143.494H232.999V143.492Z" fill="#333333"/>
</g>
<defs>
<filter id="filter0_dd" x="0.428574" y="0.907114" width="585.143" height="323.853" filterUnits="userSpaceOnUse" color-interpolation-filters="sRGB">
<feFlood flood-opacity="0" result="BackgroundImageFix"/>
<feColorMatrix in="SourceAlpha" type="matrix" values="0 0 0 0 0 0 0 0 0 0 0 0 0 0 0 0 0 0 127 0"/>
<feOffset dy="6.08163"/>
<feGaussianBlur stdDeviation="2.43265"/>
<feColorMatrix type="matrix" values="0 0 0 0 0 0 0 0 0 0 0 0 0 0 0 0 0 0 0.07 0"/>
<feBlend mode="normal" in2="BackgroundImageFix" result="effect1_dropShadow"/>
<feColorMatrix in="SourceAlpha" type="matrix" values="0 0 0 0 0 0 0 0 0 0 0 0 0 0 0 0 0 0 127 0"/>
<feOffset dy="18.2449"/>
<feGaussianBlur stdDeviation="21.2857"/>
<feColorMatrix type="matrix" values="0 0 0 0 0.196078 0 0 0 0 0.196078 0 0 0 0 0.364706 0 0 0 0.1 0"/>
<feBlend mode="normal" in2="effect1_dropShadow" result="effect2_dropShadow"/>
<feBlend mode="normal" in="SourceGraphic" in2="effect2_dropShadow" result="shape"/>
</filter>
</defs>
</svg>
